<svg width="348" height="117" viewBox="0 0 348 117" fill="none" xmlns="http://www.w3.org/2000/svg">
<path d="M328.123 33.3154V56.8659L294.032 56.872V33.3154H283.682V68.3059H284.888C297.195 68.2998 309.501 68.2877 321.805 68.2694C324.198 68.2662 326.589 68.2591 328.981 68.252C332.224 68.2424 335.467 68.2327 338.71 68.233V72.2897H348V56.77H338.808C338.675 56.5649 338.675 56.1972 338.675 55.5372V34.708C338.675 34.372 338.655 34.033 338.635 33.7121C338.627 33.5761 338.618 33.4433 338.612 33.3154H328.123Z" fill="#00578A"/>
<path d="M208.297 47.0868V68.1977H197.852V33.327C200.597 33.327 203.302 33.3269 206.005 33.3421C206.382 33.4 206.745 33.5266 207.077 33.7159C216.4 37.6806 225.718 41.6564 235.029 45.6433C235.401 45.8194 235.809 45.9074 236.22 45.9006C236.631 45.8937 237.036 45.7922 237.402 45.6039C246.422 41.6108 255.453 37.6452 264.496 33.7068C265.053 33.4708 265.65 33.3439 266.254 33.333C268.697 33.2935 271.137 33.333 273.67 33.333V68.2432H263.276V47.2023C262.708 47.4302 262.325 47.57 261.957 47.7341C253.809 51.3402 245.667 54.9544 237.529 58.5767C237.167 58.7671 236.766 58.8706 236.357 58.8791C235.948 58.8875 235.543 58.8007 235.174 58.6253C226.692 54.9342 218.197 51.2693 209.689 47.6307C209.279 47.4393 208.853 47.2995 208.297 47.0868Z" fill="#00578A"/>
<path d="M133.109 33.3154H188.243V35.0155C188.243 37.7331 188.186 40.4508 188.268 43.1684C188.304 44.3128 187.902 44.5543 186.828 44.5513C172.956 44.5191 159.084 44.512 145.212 44.5302H143.548V67.8173H133.109V33.3154Z" fill="#00578A"/>
<path d="M132.895 85.495V78.4668H138.006V79.4873H134.196V85.495H132.895Z" fill="#151515"/>
<path d="M142.479 85.494C141.85 85.5094 141.228 85.3582 140.678 85.0561C140.169 84.7617 139.757 84.3272 139.494 83.8058C139.2 83.207 139.055 82.5474 139.072 81.8821C139.054 81.2118 139.198 80.5469 139.494 79.9433C139.757 79.4219 140.169 78.9874 140.678 78.6931C141.227 78.3896 141.85 78.2383 142.479 78.2552C143.111 78.2394 143.735 78.3906 144.287 78.6931C144.798 78.9849 145.209 79.4201 145.468 79.9433C145.759 80.543 145.901 81.2023 145.884 81.867C145.902 82.5366 145.759 83.2009 145.468 83.8058C145.209 84.329 144.798 84.7642 144.287 85.0561C143.734 85.3571 143.111 85.5081 142.479 85.494ZM142.479 84.4913C142.769 84.5017 143.056 84.4473 143.321 84.3322C143.586 84.2172 143.821 84.0444 144.009 83.827C144.394 83.38 144.587 82.7267 144.587 81.867C144.587 81.0073 144.394 80.3591 144.009 79.9222C143.819 79.7079 143.583 79.5381 143.319 79.4253C143.054 79.3124 142.767 79.2593 142.479 79.2698C142.191 79.2589 141.904 79.3118 141.64 79.4247C141.375 79.5376 141.139 79.7076 140.95 79.9222C140.571 80.3571 140.381 81.0053 140.381 81.867C140.381 82.7287 140.571 83.382 140.95 83.827C141.137 84.0448 141.372 84.2177 141.637 84.3328C141.902 84.4479 142.19 84.5021 142.479 84.4913Z" fill="#151515"/>
<path d="M147.918 88.4767V80.0527C147.918 79.781 147.918 79.5033 147.887 79.2225C147.856 78.9417 147.84 78.6609 147.803 78.3801H149.05L149.206 80.01H149.05C149.181 79.4847 149.508 79.0263 149.967 78.7249C150.464 78.403 151.05 78.239 151.645 78.255C152.235 78.2421 152.817 78.3934 153.323 78.6914C153.812 78.9931 154.2 79.4294 154.436 79.9458C154.712 80.5629 154.847 81.2319 154.829 81.9054C154.846 82.5807 154.712 83.2516 154.436 83.8709C154.202 84.391 153.814 84.8308 153.323 85.1345C152.817 85.4325 152.235 85.5839 151.645 85.571C151.057 85.5846 150.479 85.4205 149.989 85.101C149.534 84.7972 149.203 84.3467 149.053 83.8282H149.209V88.4767H147.918ZM151.349 84.5577C151.647 84.5696 151.943 84.5153 152.217 84.399C152.49 84.2827 152.733 84.1074 152.927 83.8862C153.318 83.4345 153.513 82.7742 153.513 81.9054C153.513 81.0365 153.318 80.3813 152.927 79.9398C152.731 79.7218 152.487 79.5494 152.214 79.4354C151.941 79.3213 151.645 79.2684 151.349 79.2805C151.055 79.2694 150.763 79.3229 150.493 79.4369C150.223 79.551 149.983 79.7229 149.789 79.9398C149.403 80.3793 149.209 81.0345 149.209 81.9054C149.209 82.7762 149.403 83.4365 149.789 83.8862C149.982 84.108 150.223 84.2838 150.496 84.4002C150.768 84.5166 151.064 84.5705 151.361 84.5577H151.349Z" fill="#151515"/>
<path d="M159.727 85.494C159.097 85.509 158.475 85.3578 157.925 85.0561C157.417 84.7603 157.007 84.3262 156.744 83.8058C156.45 83.207 156.305 82.5474 156.322 81.8821C156.304 81.2118 156.448 80.5469 156.744 79.9432C157.007 79.4229 157.417 78.9888 157.925 78.693C158.475 78.3899 159.097 78.2387 159.727 78.2551C160.358 78.2391 160.982 78.3903 161.534 78.693C162.046 78.9849 162.458 79.42 162.718 79.9432C163.008 80.5433 163.151 81.2024 163.134 81.867C163.151 82.5365 163.008 83.2004 162.718 83.8058C162.458 84.3291 162.046 84.7643 161.534 85.0561C160.982 85.3575 160.358 85.5086 159.727 85.494ZM159.727 84.4914C160.016 84.5017 160.304 84.4473 160.568 84.3323C160.833 84.2172 161.068 84.0445 161.256 83.827C161.639 83.38 161.831 82.7267 161.831 81.867C161.831 81.0073 161.639 80.359 161.256 79.9222C161.066 79.7081 160.83 79.5384 160.566 79.4256C160.301 79.3127 160.015 79.2595 159.727 79.2698C159.438 79.2586 159.151 79.3114 158.887 79.4243C158.622 79.5372 158.386 79.7074 158.197 79.9222C157.816 80.357 157.625 81.0053 157.625 81.867C157.625 82.7287 157.816 83.382 158.197 83.827C158.384 84.045 158.619 84.2181 158.884 84.3332C159.149 84.4483 159.437 84.5024 159.727 84.4914Z" fill="#151515"/>
<path d="M164.629 87.1987V84.428H165.401C165.734 83.9223 165.97 83.3615 166.097 82.7729C166.252 82.0281 166.325 81.269 166.314 80.5089V78.4668H171.385V84.428H172.509V87.1987H171.413V85.3996H165.725V87.1987H164.629ZM166.61 84.44H170.192V79.4383H167.444V80.7368C167.445 81.4198 167.375 82.1012 167.233 82.7698C167.113 83.3565 166.897 83.9203 166.595 84.44H166.61Z" fill="#151515"/>
<path d="M177.309 85.4939C176.658 85.5098 176.015 85.3588 175.444 85.056C174.917 84.7608 174.492 84.3204 174.222 83.7905C173.916 83.1787 173.767 82.5043 173.787 81.8245C173.767 81.1575 173.919 80.4963 174.228 79.9008C174.511 79.3837 174.943 78.9584 175.472 78.6776C176.039 78.3861 176.673 78.2406 177.315 78.2549C177.778 78.2537 178.238 78.3314 178.673 78.4844C179.079 78.6176 179.447 78.8433 179.745 79.1427L179.304 80.0336C179.042 79.7824 178.73 79.5861 178.387 79.4568C178.073 79.3362 177.739 79.2726 177.402 79.2696C177.092 79.254 176.783 79.3049 176.496 79.4187C176.209 79.5325 175.952 79.7063 175.742 79.9279C175.342 80.3688 175.142 81.0061 175.142 81.8396C175.094 82.537 175.307 83.2276 175.742 83.7845C175.948 84.0118 176.205 84.1909 176.492 84.3086C176.779 84.4262 177.09 84.4793 177.402 84.464C177.735 84.4603 178.064 84.399 178.375 84.2829C178.722 84.157 179.039 83.9638 179.307 83.715L179.748 84.5909C179.445 84.8976 179.069 85.1286 178.654 85.2644C178.223 85.4151 177.767 85.4927 177.309 85.4939Z" fill="#151515"/>
<path d="M181.453 85.495V78.4668H182.719V81.3735H184.01L186.3 78.4668H187.702L185.043 81.8807L184.705 81.4919C184.952 81.5118 185.192 81.5799 185.412 81.6923C185.627 81.8162 185.82 81.9742 185.984 82.1601C186.207 82.4183 186.407 82.6946 186.583 82.9862L188.055 85.4859H186.669L185.381 83.3203C185.268 83.1067 185.125 82.9094 184.957 82.7341C184.826 82.5971 184.664 82.493 184.484 82.4304C184.27 82.3704 184.048 82.3427 183.826 82.3484H182.719V85.4768L181.453 85.495Z" fill="#151515"/>
<path d="M192.529 85.494C191.899 85.5094 191.277 85.3582 190.726 85.0561C190.217 84.7617 189.805 84.3272 189.542 83.8058C189.249 83.2067 189.105 82.5472 189.123 81.8821C189.104 81.2121 189.247 80.5472 189.542 79.9433C189.805 79.4219 190.217 78.9874 190.726 78.6931C191.276 78.3896 191.899 78.2383 192.529 78.2552C193.16 78.2391 193.785 78.3903 194.337 78.6931C194.848 78.9849 195.259 79.4201 195.519 79.9433C195.81 80.543 195.952 81.2023 195.935 81.867C195.953 82.5366 195.81 83.2009 195.519 83.8058C195.259 84.329 194.848 84.7642 194.337 85.0561C193.784 85.3575 193.16 85.5086 192.529 85.494ZM192.529 84.4913C192.818 84.5017 193.106 84.4473 193.371 84.3322C193.636 84.2172 193.871 84.0444 194.059 83.827C194.444 83.38 194.637 82.7267 194.637 81.867C194.637 81.0073 194.444 80.3591 194.059 79.9222C193.869 79.7079 193.633 79.5381 193.369 79.4253C193.104 79.3124 192.817 79.2593 192.529 79.2698C192.241 79.2589 191.954 79.3118 191.689 79.4247C191.424 79.5376 191.188 79.7076 190.999 79.9222C190.619 80.3571 190.429 81.0053 190.429 81.867C190.429 82.7287 190.619 83.382 190.999 83.827C191.186 84.0448 191.421 84.2177 191.686 84.3328C191.951 84.4479 192.239 84.5021 192.529 84.4913Z" fill="#151515"/>
<path d="M197.852 85.4798V78.4351H199.047V84.2925H198.656L203.149 78.4504H204.241V85.4951H203.046V79.6407H203.449L198.944 85.4951L197.852 85.4798ZM201.046 77.7927C200.657 77.7972 200.271 77.7258 199.91 77.5827C199.572 77.4477 199.269 77.2394 199.025 76.9738C198.765 76.6847 198.576 76.3423 198.471 75.9722L199.219 75.7043C199.348 76.0948 199.593 76.4392 199.923 76.6938C200.255 76.9087 200.648 77.0153 201.046 76.9982C201.448 77.0104 201.844 76.9043 202.182 76.6938C202.528 76.4352 202.797 76.0916 202.961 75.6982L203.665 75.951C203.482 76.5109 203.116 76.9972 202.623 77.3361C202.156 77.6377 201.607 77.7967 201.046 77.7927Z" fill="#151515"/>
<path d="M210.418 85.495V78.4668H211.497L214.142 83.0652L216.8 78.4668H217.872V85.495H216.728V79.8943H217.039L214.462 84.3651H213.822L211.248 79.8791H211.559V85.495H210.418Z" fill="#151515"/>
<path d="M223.418 85.495C222.297 85.495 221.412 85.1748 220.762 84.5346C220.113 83.8973 219.79 83.0245 219.79 81.8949C219.773 81.2288 219.919 80.5684 220.217 79.9711C220.483 79.4477 220.894 79.0099 221.402 78.7086C221.936 78.399 222.546 78.2422 223.165 78.2556C223.739 78.2365 224.307 78.3789 224.803 78.6663C225.256 78.9402 225.613 79.3449 225.827 79.8261C226.073 80.3866 226.193 80.9937 226.177 81.605V82.0218H220.783V81.2698H225.309L225.071 81.4509C225.109 80.8518 224.938 80.2581 224.587 79.7687C224.414 79.5649 224.195 79.4041 223.948 79.2992C223.701 79.1943 223.433 79.1483 223.165 79.1647C222.864 79.1488 222.563 79.2039 222.288 79.3257C222.013 79.4476 221.77 79.6325 221.581 79.8653C221.185 80.4214 220.989 81.0941 221.027 81.7741V81.9009C221.027 82.7526 221.24 83.396 221.667 83.8309C221.9 84.0555 222.179 84.2295 222.484 84.3418C222.789 84.4541 223.114 84.5023 223.439 84.4832C223.838 84.4873 224.235 84.4271 224.615 84.305C225 84.1713 225.357 83.9663 225.665 83.701L226.086 84.5769C225.742 84.8782 225.338 85.1046 224.901 85.2413C224.424 85.4074 223.923 85.4932 223.418 85.495Z" fill="#151515"/>
<path d="M227.455 87.1987V84.428H228.247C228.588 83.9223 228.829 83.3615 228.96 82.7729C229.119 82.0281 229.194 81.269 229.183 80.5089V78.4668H234.396V84.428H235.548V87.1987H234.396V85.3996H228.594V87.1987H227.455ZM229.486 84.44H233.145V79.4383H230.328V80.7368C230.33 81.4198 230.257 82.1012 230.112 82.7698C229.997 83.3549 229.786 83.9187 229.486 84.44Z" fill="#151515"/>
<path d="M237.039 85.4798V78.4668H238.234V84.2978H237.846L242.336 78.482H243.428V85.495H242.233V79.6669H242.637L238.134 85.495L237.039 85.4798Z" fill="#151515"/>
<path d="M251.921 87.4117V85.5699H245.771V78.4668H247.044V84.5693H250.608V78.4668H251.881V84.5693H253.013V87.4057L251.921 87.4117Z" fill="#151515"/>
<path d="M254.715 85.4798V78.4668H255.909V84.2978H255.522L260.009 78.482H261.104V85.495H259.909V79.6669H260.313L255.809 85.495L254.715 85.4798Z" fill="#151515"/>
<path d="M263.449 85.495V78.4668H264.746V81.3735H268.551V78.4668H269.838V85.495H268.551V82.3787H264.746V85.495H263.449Z" fill="#151515"/>
<path d="M275.286 85.4939C274.634 85.5098 273.99 85.3588 273.418 85.056C272.889 84.7616 272.463 84.321 272.194 83.7905C271.887 83.179 271.737 82.5046 271.756 81.8245C271.736 81.1573 271.889 80.496 272.201 79.9008C272.481 79.3867 272.908 78.962 273.43 78.6776C274 78.3861 274.636 78.2406 275.28 78.2549C275.743 78.2537 276.204 78.3314 276.64 78.4844C277.047 78.6176 277.415 78.8433 277.714 79.1427L277.269 80.0336C277.007 79.7831 276.696 79.5869 276.354 79.4568C276.038 79.3359 275.703 79.2723 275.364 79.2696C275.054 79.2544 274.745 79.3056 274.458 79.4194C274.172 79.5332 273.914 79.7067 273.704 79.9279C273.302 80.3688 273.101 81.0061 273.104 81.8396C273.056 82.537 273.269 83.2276 273.704 83.7845C273.91 84.0115 274.167 84.1906 274.454 84.3082C274.741 84.4259 275.052 84.4791 275.364 84.464C275.697 84.461 276.027 84.3997 276.338 84.2829C276.686 84.1578 277.004 83.9645 277.272 83.715L277.717 84.5909C277.413 84.8976 277.037 85.1286 276.621 85.2644C276.193 85.4132 275.741 85.4908 275.286 85.4939Z" fill="#151515"/>
<path d="M279.422 85.495V78.4668H280.71V81.3735H281.998L284.287 78.4668H285.686L283.015 81.8807L282.674 81.4919C282.921 81.5111 283.161 81.5793 283.381 81.6923C283.598 81.8153 283.792 81.9734 283.956 82.1601C284.177 82.4198 284.377 82.696 284.555 82.9862L286.024 85.4859H284.641L283.353 83.3203C283.24 83.1067 283.097 82.9094 282.929 82.7341C282.798 82.5971 282.636 82.493 282.456 82.4304C282.242 82.3706 282.02 82.3429 281.798 82.3484H280.71V85.4768L279.422 85.495Z" fill="#151515"/>
<path d="M287.301 85.4798V78.4668H288.495V84.2978H288.108L292.595 78.482H293.69V85.495H292.511V79.6669H292.914L288.411 85.495L287.301 85.4798Z" fill="#151515"/>
<path d="M296.033 85.4798V78.4439H297.227V84.294H296.846L301.329 78.4591H302.422V85.4951H301.22V79.648H301.623L297.124 85.4951L296.033 85.4798ZM299.223 77.8023C298.837 77.8096 298.454 77.7424 298.095 77.6047C297.757 77.4691 297.455 77.2613 297.211 76.9966C296.954 76.7063 296.765 76.3649 296.658 75.9962L297.405 75.7287C297.534 76.1081 297.774 76.4429 298.095 76.6925C298.425 76.9081 298.817 77.0147 299.214 76.9966C299.616 77.0092 300.012 76.9032 300.351 76.6925C300.697 76.435 300.964 76.0915 301.126 75.6982L301.832 75.9506C301.648 76.5102 301.282 76.996 300.788 77.3341C300.326 77.6379 299.781 77.8008 299.223 77.8023Z" fill="#151515"/>
<path d="M314.75 87.4117V85.5699H308.598V78.4668H309.871V84.5693H313.433V78.4668H314.707V84.5693H315.839V87.4057L314.75 87.4117Z" fill="#151515"/>
<path d="M320.748 85.495C319.627 85.495 318.742 85.1752 318.094 84.5358C317.442 83.8993 317.119 83.0275 317.119 81.8994C317.099 81.2317 317.244 80.5693 317.539 79.9689C317.807 79.4468 318.218 79.0099 318.725 78.7081C319.26 78.3983 319.872 78.2417 320.492 78.2556C321.066 78.2365 321.635 78.3787 322.131 78.6658C322.582 78.9411 322.939 79.3448 323.155 79.8241C323.4 80.3843 323.52 80.9904 323.505 81.6008V82.0171H318.115V81.266H322.64L322.402 81.4469C322.44 80.8485 322.269 80.2556 321.918 79.7668C321.745 79.5633 321.527 79.4027 321.28 79.298C321.034 79.1932 320.766 79.1472 320.498 79.1636C320.197 79.1474 319.896 79.2024 319.62 79.3241C319.345 79.4458 319.103 79.6306 318.914 79.8633C318.513 80.4169 318.315 81.0896 318.353 81.7697V81.8964C318.353 82.747 318.563 83.4046 318.99 83.8239C319.224 84.0478 319.502 84.2213 319.808 84.3334C320.113 84.4455 320.438 84.4939 320.763 84.4754C321.162 84.4798 321.559 84.4197 321.939 84.2975C322.325 84.1639 322.682 83.9592 322.99 83.6942L323.411 84.569C323.068 84.8693 322.665 85.0953 322.229 85.2326C321.753 85.4009 321.253 85.4896 320.748 85.495Z" fill="#151515"/>
<path d="M325.424 85.495V78.4668H326.704V81.3735H330.521V78.4668H331.813V85.495H330.521V82.3787H326.704V85.495H325.424Z" fill="#151515"/>
<path d="M335.65 85.495V79.4873H333.09V78.4668H339.479V79.4873H336.922V85.495H335.65Z" fill="#151515"/>
<path d="M340.873 88.4767V80.0527C340.873 79.781 340.873 79.5033 340.845 79.2225C340.817 78.9417 340.795 78.6609 340.758 78.3801H342.018L342.173 80.01H342.018C342.148 79.4847 342.475 79.0263 342.932 78.725C343.428 78.403 344.014 78.2389 344.609 78.255C345.197 78.2421 345.778 78.3934 346.282 78.6914C346.769 78.9933 347.154 79.4297 347.389 79.9458C347.667 80.5622 347.802 81.2316 347.784 81.9054C347.802 82.5811 347.667 83.2524 347.389 83.8709C347.156 84.3907 346.771 84.8305 346.282 85.1345C345.778 85.4325 345.197 85.5839 344.609 85.571C344.021 85.585 343.443 85.4209 342.954 85.101C342.5 84.7972 342.17 84.3467 342.021 83.8282H342.176V88.4767H340.873ZM344.294 84.5577C344.591 84.5696 344.887 84.5153 345.16 84.399C345.432 84.2827 345.675 84.1074 345.868 83.8862C346.26 83.4345 346.453 82.7752 346.453 81.9054C346.453 81.0355 346.26 80.3793 345.868 79.9398C345.673 79.7218 345.43 79.5494 345.157 79.4354C344.885 79.3213 344.59 79.2684 344.294 79.2805C344.001 79.2694 343.71 79.3229 343.441 79.437C343.171 79.551 342.932 79.7229 342.739 79.9398C342.345 80.3732 342.148 81.0284 342.148 81.9054C342.148 82.7823 342.341 83.4426 342.727 83.8862C342.92 84.1097 343.163 84.2865 343.437 84.403C343.711 84.5194 344.009 84.5724 344.307 84.5577H344.294Z" fill="#151515"/>
<path d="M17.6807 71.8209C17.5507 68.5829 20.0452 66.8465 21.1787 71.6063C22.3122 76.3662 23.852 86.9867 23.852 86.9867C23.852 86.9867 17.8676 85.9384 17.9326 85.5135C17.9976 85.0885 17.6807 71.8209 17.6807 71.8209Z" fill="#00578A"/>
<path d="M11.9317 64.0332C11.7725 60.0356 14.8664 57.9097 16.2704 63.767C17.6745 69.6243 19.5929 82.7267 19.5929 82.7267C19.5929 82.7267 12.1643 81.4358 12.246 80.9114C12.3276 80.387 11.9317 64.0332 11.9317 64.0332Z" fill="#007D99"/>
<path d="M6.14885 58.2966C5.97316 53.85 9.34327 51.4772 10.8686 58.0015C12.3939 64.5258 14.4823 79.1066 14.4823 79.1066C14.4823 79.1066 4.81119 69.0007 4.89903 68.4267C4.98688 67.8527 6.14885 58.2966 6.14885 58.2966Z" fill="#01A6A0"/>
<path d="M45.2018 116.376C43.8368 94.9323 21.5712 94.7966 12.0123 87.1912C2.45336 79.5858 0.353383 60.1724 0.942992 55.8167C1.5326 51.4609 3.8466 49.3094 5.76889 55.3929C7.69117 61.4764 9.48826 72.4324 16.7413 77.4947C23.9942 82.5569 37.5841 83.223 29.85 77.6318C19.7539 70.3332 21.5022 63.2787 23.9004 61.8035C25.7343 60.6754 30.0276 68.5732 36.0085 71.7986C41.9894 75.0241 50.9372 77.5614 55.0766 87.6091C59.7822 99.0313 45.2018 116.376 45.2018 116.376Z" fill="#00C6BF"/>
<path d="M90.5775 10.2645C83.9878 5.76346 73.0386 3.18799 62.295 10.1031C57.9395 14.253 54.2776 19.8762 51.8095 27.1789C51.8095 27.1789 39.1786 13.2719 18.9698 20.8571C-1.23892 28.4424 0.015292 50.3544 0.015292 50.3544C0.015292 50.3544 5.83069 32.5116 25.2772 31.3813C44.7237 30.251 54.8493 48.9999 54.8493 48.9999C54.8493 48.9999 57.3184 30.0046 74.9542 25.4834C91.2187 21.3294 101.007 34.1143 96.893 50.0275C103.902 33.8317 101.051 17.4138 90.5775 10.2645Z" fill="#00578A"/>
<path d="M82.6333 78.2148C82.6333 78.2148 65.9841 58.4484 36.6309 69.0034C36.6309 69.0034 51.6316 68.6852 58.4636 85.8164C62.715 96.476 52.3971 112.117 52.3971 112.117C52.3971 112.117 70.5388 97.2056 82.6333 78.2148Z" fill="#00578A"/>
<path d="M112.855 14.0584C102.903 -0.583647 78.0254 -4.92579 62.2491 10.0587C73.0007 3.15856 83.9582 5.72844 90.5528 10.2197C101.046 17.3535 103.871 33.7195 96.8892 49.9043C96.4596 51.5457 95.9092 53.1533 95.2425 54.7139C88.5187 70.5362 80.4954 80.6064 80.4954 80.6064C68.755 98.3299 51.9668 112.33 51.9668 112.33C116.993 85.0841 129.915 39.1775 112.855 14.0584Z" fill="#00C6BF"/>
<path style="mix-blend-mode:multiply" opacity="0.29" d="M89.5953 26.9541C98.3045 32.2997 98.4635 43.1026 96.7021 49.9285C103.675 33.7477 100.832 17.3858 90.3887 10.2538C83.818 5.76365 72.9002 3.19442 62.1875 10.0928C70.8413 5.05492 90.9867 0.963426 89.5953 26.9541Z" fill="#00578A"/>
<path style="mix-blend-mode:multiply" opacity="0.29" d="M76.6995 72.9297C73.1665 85.6162 58.7522 105.826 52.3926 112.117C52.3926 112.117 67.7964 99.5714 82.6349 77.8633C80.7978 76.1718 78.8193 74.3393 76.6995 72.9297Z" fill="#00578A"/>
</svg>
